G04 ================== begin FILE IDENTIFICATION RECORD ==================*
G04 Layout Name:  C:/WORK_ORCAD/OSCILLATOR/allegro/OSCILLATOR.brd*
G04 Film Name:    SilkTop*
G04 File Format:  Gerber RS274X*
G04 File Origin:  Cadence Allegro 17.2-P019*
G04 Origin Date:  Thu Aug 01 11:34:10 2019*
G04 *
G04 Layer:  REF DES/SILKSCREEN_TOP*
G04 Layer:  PACKAGE GEOMETRY/SILKSCREEN_TOP*
G04 Layer:  BOARD GEOMETRY/SILKSCREEN_TOP*
G04 *
G04 Offset:    (0.000 0.000)*
G04 Mirror:    No*
G04 Mode:      Positive*
G04 Rotation:  0*
G04 FullContactRelief:  No*
G04 UndefLineWidth:     0.200*
G04 ================== end FILE IDENTIFICATION RECORD ====================*
%FSLAX25Y25*MOIN*%
%IR0*IPPOS*OFA0.00000B0.00000*MIA0B0*SFA1.00000B1.00000*%
%ADD10C,.007874*%
%ADD11C,.015748*%
%ADD12C,.007992*%
G75*
%LPD*%
G75*
G54D10*
G01X26421Y160787D02*
X26748Y160394D01*
X27142Y160130D01*
X27602Y160000D01*
X28126Y160130D01*
X28520Y160394D01*
X28913Y160787D01*
X29043Y161311D01*
Y163937D01*
G01X31020Y163280D02*
X31413Y163673D01*
X31874Y163870D01*
X32398Y163937D01*
X33055Y163807D01*
X33516Y163476D01*
X33646Y163083D01*
X33579Y162689D01*
X33319Y162362D01*
X32004Y161705D01*
X31413Y161248D01*
X31020Y160591D01*
X30890Y160000D01*
X33646D01*
G01X66421Y200000D02*
Y203937D01*
X68059D01*
X68587Y203740D01*
X68913Y203476D01*
X69043Y202953D01*
X68913Y202429D01*
X68520Y202098D01*
X68059Y201902D01*
X66421D01*
G01X68059D02*
X69043Y200000D01*
G01X72268D02*
Y203937D01*
X71480Y203150D01*
G01Y200000D02*
X73055D01*
G01X49177Y203610D02*
X48783Y203807D01*
X48323Y203937D01*
X47799D01*
X47209Y203740D01*
X46748Y203413D01*
X46421Y203020D01*
X46157Y202362D01*
X46091Y201772D01*
X46224Y201181D01*
X46421Y200787D01*
X46815Y200394D01*
X47272Y200130D01*
X47732Y200000D01*
X48193D01*
X48650Y200130D01*
X49043Y200327D01*
X49374Y200591D01*
G01X51020Y203280D02*
X51413Y203673D01*
X51874Y203870D01*
X52398Y203937D01*
X53055Y203807D01*
X53516Y203476D01*
X53646Y203083D01*
X53579Y202689D01*
X53319Y202362D01*
X52004Y201705D01*
X51413Y201248D01*
X51020Y200591D01*
X50890Y200000D01*
X53646D01*
G01X86421D02*
Y203937D01*
X88059D01*
X88587Y203740D01*
X88913Y203476D01*
X89043Y202953D01*
X88913Y202429D01*
X88520Y202098D01*
X88059Y201902D01*
X86421D01*
G01X88059D02*
X89043Y200000D01*
G01X91154Y200461D02*
X91610Y200130D01*
X92138Y200000D01*
X92661Y200130D01*
X93122Y200524D01*
X93449Y201114D01*
X93579Y201705D01*
Y202429D01*
X93449Y203020D01*
X93122Y203543D01*
X92728Y203807D01*
X92268Y203937D01*
X91744Y203807D01*
X91350Y203543D01*
X91087Y203150D01*
X90957Y202626D01*
X91087Y202165D01*
X91413Y201705D01*
X91807Y201445D01*
X92268Y201378D01*
X92791Y201508D01*
X93185Y201839D01*
X93579Y202429D01*
G01X120524Y123937D02*
Y121114D01*
X120787Y120524D01*
X121311Y120130D01*
X121969Y120000D01*
X122626Y120130D01*
X123150Y120524D01*
X123413Y121114D01*
Y123937D01*
G01X125059Y120591D02*
X125453Y120264D01*
X125913Y120067D01*
X126504Y120000D01*
X127094Y120130D01*
X127555Y120394D01*
X127882Y120854D01*
X127949Y121378D01*
X127815Y121902D01*
X127488Y122232D01*
X127028Y122492D01*
X126571Y122559D01*
X126110Y122492D01*
X125520Y122232D01*
X125717Y123937D01*
X127488D01*
G01X115886Y168236D02*
Y165413D01*
X116150Y164823D01*
X116673Y164429D01*
X117331Y164299D01*
X117988Y164429D01*
X118512Y164823D01*
X118776Y165413D01*
Y168236D01*
G01X121866Y164299D02*
Y168236D01*
X121079Y167449D01*
G01Y164299D02*
X122654D01*
G01X116421Y200000D02*
Y203937D01*
X118059D01*
X118587Y203740D01*
X118913Y203476D01*
X119043Y202953D01*
X118913Y202429D01*
X118520Y202098D01*
X118059Y201902D01*
X116421D01*
G01X118059D02*
X119043Y200000D01*
G01X120823Y200591D02*
X121217Y200264D01*
X121677Y200067D01*
X122268Y200000D01*
X122858Y200130D01*
X123319Y200394D01*
X123646Y200854D01*
X123713Y201378D01*
X123579Y201902D01*
X123252Y202232D01*
X122791Y202492D01*
X122335Y202559D01*
X121874Y202492D01*
X121283Y202232D01*
X121480Y203937D01*
X123252D01*
G01X133823Y233937D02*
X135465Y230000D01*
X137106Y233937D01*
G01X138689Y230000D02*
Y233937D01*
X140327D01*
X140854Y233740D01*
X141181Y233476D01*
X141311Y232953D01*
X141181Y232429D01*
X140787Y232098D01*
X140327Y231902D01*
X138689D01*
G01X140327D02*
X141311Y230000D01*
G01X144535D02*
Y233937D01*
X143748Y233150D01*
G01Y230000D02*
X145323D01*
G01X149177Y113610D02*
X148783Y113807D01*
X148323Y113937D01*
X147799D01*
X147209Y113740D01*
X146748Y113413D01*
X146421Y113020D01*
X146157Y112362D01*
X146091Y111772D01*
X146224Y111181D01*
X146421Y110787D01*
X146815Y110394D01*
X147272Y110130D01*
X147732Y110000D01*
X148193D01*
X148650Y110130D01*
X149043Y110327D01*
X149374Y110591D01*
G01X150823Y110787D02*
X151217Y110327D01*
X151744Y110067D01*
X152335Y110000D01*
X152858Y110067D01*
X153382Y110394D01*
X153713Y110787D01*
X153776Y111181D01*
X153646Y111642D01*
X153185Y111969D01*
X152728Y112098D01*
X152138D01*
G01X152728D02*
X153122Y112295D01*
X153449Y112626D01*
X153579Y113020D01*
X153449Y113413D01*
X153122Y113740D01*
X152531Y113937D01*
X151941Y113870D01*
X151350Y113610D01*
G01X179177D02*
X178783Y113807D01*
X178323Y113937D01*
X177799D01*
X177209Y113740D01*
X176748Y113413D01*
X176421Y113020D01*
X176157Y112362D01*
X176091Y111772D01*
X176224Y111181D01*
X176421Y110787D01*
X176815Y110394D01*
X177272Y110130D01*
X177732Y110000D01*
X178193D01*
X178650Y110130D01*
X179043Y110327D01*
X179374Y110591D01*
G01X183055Y110000D02*
Y113937D01*
X180626Y111114D01*
X183909D01*
G01X166421Y210000D02*
Y213937D01*
X168059D01*
X168587Y213740D01*
X168913Y213476D01*
X169043Y212953D01*
X168913Y212429D01*
X168520Y212098D01*
X168059Y211902D01*
X166421D01*
G01X168059D02*
X169043Y210000D01*
G01X171020Y213280D02*
X171413Y213673D01*
X171874Y213870D01*
X172398Y213937D01*
X173055Y213807D01*
X173516Y213476D01*
X173646Y213083D01*
X173579Y212689D01*
X173319Y212362D01*
X172004Y211705D01*
X171413Y211248D01*
X171020Y210591D01*
X170890Y210000D01*
X173646D01*
G01X206287Y183937D02*
Y181114D01*
X206551Y180524D01*
X207075Y180130D01*
X207732Y180000D01*
X208390Y180130D01*
X208913Y180524D01*
X209177Y181114D01*
Y183937D01*
G01X211020Y183280D02*
X211413Y183673D01*
X211874Y183870D01*
X212398Y183937D01*
X213055Y183807D01*
X213516Y183476D01*
X213646Y183083D01*
X213579Y182689D01*
X213319Y182362D01*
X212004Y181705D01*
X211413Y181248D01*
X211020Y180591D01*
X210890Y180000D01*
X213646D01*
G01X206421Y220000D02*
Y223937D01*
X208059D01*
X208587Y223740D01*
X208913Y223476D01*
X209043Y222953D01*
X208913Y222429D01*
X208520Y222098D01*
X208059Y221902D01*
X206421D01*
G01X208059D02*
X209043Y220000D01*
G01X212138D02*
X212268Y220854D01*
X212465Y221575D01*
X212728Y222232D01*
X213055Y222953D01*
X213579Y223937D01*
X210957D01*
G01X239177Y113610D02*
X238783Y113807D01*
X238323Y113937D01*
X237799D01*
X237209Y113740D01*
X236748Y113413D01*
X236421Y113020D01*
X236157Y112362D01*
X236091Y111772D01*
X236224Y111181D01*
X236421Y110787D01*
X236815Y110394D01*
X237272Y110130D01*
X237732Y110000D01*
X238193D01*
X238650Y110130D01*
X239043Y110327D01*
X239374Y110591D01*
G01X240823D02*
X241217Y110264D01*
X241677Y110067D01*
X242268Y110000D01*
X242858Y110130D01*
X243319Y110394D01*
X243646Y110854D01*
X243713Y111378D01*
X243579Y111902D01*
X243252Y112232D01*
X242791Y112492D01*
X242335Y112559D01*
X241874Y112492D01*
X241283Y112232D01*
X241480Y113937D01*
X243252D01*
G01X239177Y223610D02*
X238783Y223807D01*
X238323Y223937D01*
X237799D01*
X237209Y223740D01*
X236748Y223413D01*
X236421Y223020D01*
X236157Y222362D01*
X236091Y221772D01*
X236224Y221181D01*
X236421Y220787D01*
X236815Y220394D01*
X237272Y220130D01*
X237732Y220000D01*
X238193D01*
X238650Y220130D01*
X239043Y220327D01*
X239374Y220591D01*
G01X242268Y220000D02*
Y223937D01*
X241480Y223150D01*
G01Y220000D02*
X243055D01*
G01X280524Y123937D02*
Y121114D01*
X280787Y120524D01*
X281311Y120130D01*
X281969Y120000D01*
X282626Y120130D01*
X283150Y120524D01*
X283413Y121114D01*
Y123937D01*
G01X285256Y121642D02*
X285717Y122098D01*
X286110Y122362D01*
X286634Y122492D01*
X287094Y122362D01*
X287421Y122098D01*
X287685Y121705D01*
X287752Y121248D01*
X287685Y120854D01*
X287421Y120461D01*
X287028Y120130D01*
X286571Y120000D01*
X286043Y120130D01*
X285587Y120524D01*
X285323Y121114D01*
X285256Y121772D01*
X285390Y122626D01*
X285587Y123083D01*
X285913Y123543D01*
X286374Y123870D01*
X286831Y123937D01*
X287291Y123807D01*
X287618Y123476D01*
G01X259177Y113610D02*
X258783Y113807D01*
X258323Y113937D01*
X257799D01*
X257209Y113740D01*
X256748Y113413D01*
X256421Y113020D01*
X256157Y112362D01*
X256091Y111772D01*
X256224Y111181D01*
X256421Y110787D01*
X256815Y110394D01*
X257272Y110130D01*
X257732Y110000D01*
X258193D01*
X258650Y110130D01*
X259043Y110327D01*
X259374Y110591D01*
G01X261020Y111642D02*
X261480Y112098D01*
X261874Y112362D01*
X262398Y112492D01*
X262858Y112362D01*
X263185Y112098D01*
X263449Y111705D01*
X263516Y111248D01*
X263449Y110854D01*
X263185Y110461D01*
X262791Y110130D01*
X262335Y110000D01*
X261807Y110130D01*
X261350Y110524D01*
X261087Y111114D01*
X261020Y111772D01*
X261154Y112626D01*
X261350Y113083D01*
X261677Y113543D01*
X262138Y113870D01*
X262594Y113937D01*
X263055Y113807D01*
X263382Y113476D01*
G01X276287Y183937D02*
Y181114D01*
X276551Y180524D01*
X277075Y180130D01*
X277732Y180000D01*
X278390Y180130D01*
X278913Y180524D01*
X279177Y181114D01*
Y183937D01*
G01X283055Y180000D02*
Y183937D01*
X280626Y181114D01*
X283909D01*
G01X266287Y253937D02*
Y251114D01*
X266551Y250524D01*
X267075Y250130D01*
X267732Y250000D01*
X268390Y250130D01*
X268913Y250524D01*
X269177Y251114D01*
Y253937D01*
G01X270823Y250787D02*
X271217Y250327D01*
X271744Y250067D01*
X272335Y250000D01*
X272858Y250067D01*
X273382Y250394D01*
X273713Y250787D01*
X273776Y251181D01*
X273646Y251642D01*
X273185Y251969D01*
X272728Y252098D01*
X272138D01*
G01X272728D02*
X273122Y252295D01*
X273449Y252626D01*
X273579Y253020D01*
X273449Y253413D01*
X273122Y253740D01*
X272531Y253937D01*
X271941Y253870D01*
X271350Y253610D01*
G01X304154Y190000D02*
Y193937D01*
X305791D01*
X306319Y193740D01*
X306646Y193476D01*
X306776Y192953D01*
X306646Y192429D01*
X306252Y192098D01*
X305791Y191902D01*
X304154D01*
G01X305791D02*
X306776Y190000D01*
G01X310000D02*
Y193937D01*
X309213Y193150D01*
G01Y190000D02*
X310787D01*
G01X314535Y193937D02*
X314012Y193807D01*
X313618Y193476D01*
X313354Y193083D01*
X313157Y192559D01*
X313091Y191969D01*
X313157Y191378D01*
X313354Y190854D01*
X313618Y190461D01*
X314012Y190130D01*
X314535Y190000D01*
X315059Y190130D01*
X315453Y190461D01*
X315717Y190854D01*
X315913Y191378D01*
X315980Y191969D01*
X315913Y192559D01*
X315717Y193083D01*
X315453Y193476D01*
X315059Y193807D01*
X314535Y193937D01*
G01X326421Y190000D02*
Y193937D01*
X328059D01*
X328587Y193740D01*
X328913Y193476D01*
X329043Y192953D01*
X328913Y192429D01*
X328520Y192098D01*
X328059Y191902D01*
X326421D01*
G01X328059D02*
X329043Y190000D01*
G01X330823Y190787D02*
X331217Y190327D01*
X331744Y190067D01*
X332335Y190000D01*
X332858Y190067D01*
X333382Y190394D01*
X333713Y190787D01*
X333776Y191181D01*
X333646Y191642D01*
X333185Y191969D01*
X332728Y192098D01*
X332138D01*
G01X332728D02*
X333122Y192295D01*
X333449Y192626D01*
X333579Y193020D01*
X333449Y193413D01*
X333122Y193740D01*
X332531Y193937D01*
X331941Y193870D01*
X331350Y193610D01*
G01X331421Y170000D02*
Y173937D01*
X333059D01*
X333587Y173740D01*
X333913Y173476D01*
X334043Y172953D01*
X333913Y172429D01*
X333520Y172098D01*
X333059Y171902D01*
X331421D01*
G01X333059D02*
X334043Y170000D01*
G01X338055D02*
Y173937D01*
X335626Y171114D01*
X338909D01*
G01X346421Y190000D02*
Y193937D01*
X348059D01*
X348587Y193740D01*
X348913Y193476D01*
X349043Y192953D01*
X348913Y192429D01*
X348520Y192098D01*
X348059Y191902D01*
X346421D01*
G01X348059D02*
X349043Y190000D01*
G01X352268D02*
X352728Y190067D01*
X353252Y190264D01*
X353579Y190591D01*
X353713Y191051D01*
X353579Y191508D01*
X353185Y191902D01*
X352594Y192098D01*
X351941D01*
X351547Y192232D01*
X351217Y192559D01*
X351087Y193020D01*
X351283Y193476D01*
X351744Y193807D01*
X352268Y193937D01*
X352791Y193807D01*
X353252Y193476D01*
X353449Y193020D01*
X353319Y192559D01*
X352988Y192232D01*
X352594Y192098D01*
X351941D01*
X351350Y191902D01*
X350957Y191508D01*
X350823Y191051D01*
X350957Y190591D01*
X351283Y190264D01*
X351807Y190067D01*
X352268Y190000D01*
G01X366421D02*
Y193937D01*
X368059D01*
X368587Y193740D01*
X368913Y193476D01*
X369043Y192953D01*
X368913Y192429D01*
X368520Y192098D01*
X368059Y191902D01*
X366421D01*
G01X368059D02*
X369043Y190000D01*
G01X371020Y191642D02*
X371480Y192098D01*
X371874Y192362D01*
X372398Y192492D01*
X372858Y192362D01*
X373185Y192098D01*
X373449Y191705D01*
X373516Y191248D01*
X373449Y190854D01*
X373185Y190461D01*
X372791Y190130D01*
X372335Y190000D01*
X371807Y190130D01*
X371350Y190524D01*
X371087Y191114D01*
X371020Y191772D01*
X371154Y192626D01*
X371350Y193083D01*
X371677Y193543D01*
X372138Y193870D01*
X372594Y193937D01*
X373055Y193807D01*
X373382Y193476D01*
G01X376421Y160787D02*
X376748Y160394D01*
X377142Y160130D01*
X377602Y160000D01*
X378126Y160130D01*
X378520Y160394D01*
X378913Y160787D01*
X379043Y161311D01*
Y163937D01*
G01X382268Y160000D02*
Y163937D01*
X381480Y163150D01*
G01Y160000D02*
X383055D01*
G01X14685Y162480D02*
X24685D01*
Y132480D01*
X14685D01*
Y162480D01*
G01X65000Y230000D02*
Y200000D01*
X55000D01*
Y230000D01*
X65000D01*
G01X84000Y175000D02*
X90000D01*
X92500Y172500D01*
X97500D01*
X100000Y175000D01*
X106000D01*
Y135000D01*
X84000D01*
Y175000D01*
G01X75000Y208500D02*
Y236500D01*
X85000D01*
Y208500D01*
X75000D01*
G01X100000Y236500D02*
Y208500D01*
X90000D01*
Y236500D01*
X100000D01*
G01X130000Y202500D02*
Y227500D01*
X150000D01*
Y202500D01*
X130000D01*
G01X120000Y236500D02*
Y208500D01*
X110000D01*
Y236500D01*
X120000D01*
G01X152500Y70000D02*
Y100000D01*
X162500D01*
Y70000D01*
X152500D01*
G01X170000D02*
Y100000D01*
X180000D01*
Y70000D01*
X170000D01*
G01X180000Y208500D02*
Y236500D01*
X190000D01*
Y208500D01*
X180000D01*
G01X204000Y175000D02*
X210000D01*
X212500Y172500D01*
X217500D01*
X220000Y175000D01*
X226000D01*
Y135000D01*
X204000D01*
Y175000D01*
G01X222500Y202500D02*
Y232500D01*
X232500D01*
Y202500D01*
X222500D01*
G01X235000Y72500D02*
Y102500D01*
X245000D01*
Y72500D01*
X235000D01*
G01X252500D02*
Y102500D01*
X262500D01*
Y72500D01*
X252500D01*
G01X274000Y177500D02*
X280000D01*
X282500Y175000D01*
X287500D01*
X290000Y177500D01*
X296000D01*
Y137500D01*
X274000D01*
Y177500D01*
G01X261500Y240000D02*
X267500D01*
X270000Y237500D01*
X275000D01*
X277500Y240000D01*
X283500D01*
Y200000D01*
X261500D01*
Y240000D01*
G01X305000Y201000D02*
Y229000D01*
X315000D01*
Y201000D01*
X305000D01*
G01X330000Y176500D02*
Y148500D01*
X320000D01*
Y176500D01*
X330000D01*
G01X320000Y201000D02*
Y229000D01*
X330000D01*
Y201000D01*
X320000D01*
G01X347500Y229000D02*
Y201000D01*
X337500D01*
Y229000D01*
X347500D01*
G01X379016Y132795D02*
X369016D01*
Y152795D01*
X379016D01*
Y132795D01*
G01X355000Y201000D02*
Y229000D01*
X365000D01*
Y201000D01*
X355000D01*
G54D11*
G01X162626Y10000D02*
X160524D01*
Y25748D01*
X162626D01*
G01X161783Y18138D02*
X160524D01*
G01X164272Y25748D02*
Y10000D01*
X166374D01*
G01X170122D02*
X168020D01*
Y25748D01*
X170122D01*
G01X169280Y18138D02*
X168020D01*
G01X173972Y24437D02*
X173657Y25224D01*
X173291Y25748D01*
X172870D01*
X172398Y24961D01*
X172031Y23650D01*
X171768Y22075D01*
X171559Y19449D01*
X171508Y17087D01*
X171610Y14724D01*
X171768Y13150D01*
X172083Y11575D01*
X172453Y10524D01*
X172819Y10000D01*
X173185D01*
X173555Y10524D01*
X173870Y11311D01*
X174130Y12362D01*
G01X176567Y25748D02*
Y10000D01*
G01X175358Y25748D02*
X177776D01*
G01X179264Y10000D02*
Y25748D01*
X180579D01*
X180996Y24961D01*
X181260Y23909D01*
X181366Y21811D01*
X181260Y19713D01*
X180945Y18398D01*
X180579Y17610D01*
X179264D01*
G01X180579D02*
X181366Y10000D01*
G01X184063D02*
X183642Y10264D01*
X183276Y11311D01*
X182961Y12886D01*
X182752Y14724D01*
X182646Y16823D01*
Y18925D01*
X182752Y21024D01*
X182961Y22862D01*
X183276Y24437D01*
X183642Y25484D01*
X184063Y25748D01*
X184484Y25484D01*
X184850Y24437D01*
X185165Y22862D01*
X185374Y21024D01*
X185480Y18925D01*
Y16823D01*
X185374Y14724D01*
X185165Y12886D01*
X184850Y11311D01*
X184484Y10264D01*
X184063Y10000D01*
G01X186602D02*
Y25748D01*
X189020Y10000D01*
Y25748D01*
G01X190929D02*
X192189D01*
G01X191559D02*
Y10000D01*
G01X190929D02*
X192189D01*
G01X196461Y24437D02*
X196146Y25224D01*
X195780Y25748D01*
X195358D01*
X194886Y24961D01*
X194520Y23650D01*
X194256Y22075D01*
X194047Y19449D01*
X193996Y17087D01*
X194098Y14724D01*
X194256Y13150D01*
X194571Y11575D01*
X194941Y10524D01*
X195307Y10000D01*
X195673D01*
X196043Y10524D01*
X196358Y11311D01*
X196618Y12362D01*
G01X203957Y24437D02*
X203642Y25224D01*
X203276Y25748D01*
X202854D01*
X202382Y24961D01*
X202016Y23650D01*
X201752Y22075D01*
X201543Y19449D01*
X201492Y17087D01*
X201594Y14724D01*
X201752Y13150D01*
X202067Y11575D01*
X202437Y10524D01*
X202803Y10000D01*
X203169D01*
X203539Y10524D01*
X203854Y11311D01*
X204114Y12362D01*
G01X205240Y10000D02*
X206551Y25748D01*
X207862Y10000D01*
G01X207390Y15512D02*
X205713D01*
G01X209146Y10000D02*
Y25748D01*
X210193D01*
X210614Y24961D01*
X210929Y23909D01*
X211193Y22335D01*
X211402Y20500D01*
X211453Y17874D01*
X211402Y15248D01*
X211193Y13413D01*
X210929Y11839D01*
X210614Y10787D01*
X210193Y10000D01*
X209146D01*
G01X161575Y260000D02*
X161154Y260264D01*
X160787Y261311D01*
X160472Y262886D01*
X160264Y264724D01*
X160157Y266823D01*
Y268925D01*
X160264Y271024D01*
X160472Y272862D01*
X160787Y274437D01*
X161154Y275484D01*
X161575Y275748D01*
X161996Y275484D01*
X162362Y274437D01*
X162677Y272862D01*
X162886Y271024D01*
X162992Y268925D01*
Y266823D01*
X162886Y264724D01*
X162677Y262886D01*
X162362Y261311D01*
X161996Y260264D01*
X161575Y260000D01*
G01X164220Y262098D02*
X164642Y260787D01*
X165114Y260000D01*
X165531D01*
X165953Y260787D01*
X166268Y262098D01*
X166425Y263937D01*
X166319Y265776D01*
X166059Y267350D01*
X165587Y268398D01*
X164957Y268925D01*
X164587Y269972D01*
X164429Y271811D01*
X164535Y273650D01*
X164799Y274961D01*
X165165Y275748D01*
X165531D01*
X165902Y275224D01*
X166217Y273909D01*
G01X170224Y274437D02*
X169909Y275224D01*
X169543Y275748D01*
X169122D01*
X168650Y274961D01*
X168283Y273650D01*
X168020Y272075D01*
X167811Y269449D01*
X167760Y267087D01*
X167862Y264724D01*
X168020Y263150D01*
X168335Y261575D01*
X168705Y260524D01*
X169071Y260000D01*
X169437D01*
X169807Y260524D01*
X170122Y261311D01*
X170382Y262362D01*
G01X172189Y275748D02*
X173449D01*
G01X172819D02*
Y260000D01*
G01X172189D02*
X173449D01*
G01X175516Y275748D02*
Y260000D01*
X177618D01*
G01X179264Y275748D02*
Y260000D01*
X181366D01*
G01X182752D02*
X184063Y275748D01*
X185374Y260000D01*
G01X184902Y265512D02*
X183224D01*
G01X187811Y275748D02*
Y260000D01*
G01X186602Y275748D02*
X189020D01*
G01X191559Y260000D02*
X191138Y260264D01*
X190772Y261311D01*
X190457Y262886D01*
X190248Y264724D01*
X190142Y266823D01*
Y268925D01*
X190248Y271024D01*
X190457Y272862D01*
X190772Y274437D01*
X191138Y275484D01*
X191559Y275748D01*
X191980Y275484D01*
X192346Y274437D01*
X192661Y272862D01*
X192870Y271024D01*
X192976Y268925D01*
Y266823D01*
X192870Y264724D01*
X192661Y262886D01*
X192346Y261311D01*
X191980Y260264D01*
X191559Y260000D01*
G01X194256D02*
Y275748D01*
X195571D01*
X195988Y274961D01*
X196252Y273909D01*
X196358Y271811D01*
X196252Y269713D01*
X195937Y268398D01*
X195571Y267610D01*
X194256D01*
G01X195571D02*
X196358Y260000D01*
G54D12*
G01X114000Y111000D02*
Y69000D01*
G01D02*
X136500D01*
G01X131000Y111000D02*
Y69000D01*
G01X136500Y111000D02*
X114000D01*
G01X136500Y69000D02*
Y111000D01*
G01X271500D02*
Y69000D01*
G01D02*
X294000D01*
G01Y111000D02*
X271500D01*
G01X294000Y69000D02*
Y111000D01*
G01X288500D02*
Y69000D01*
M02*
