G04 ================== begin FILE IDENTIFICATION RECORD ==================*
G04 Layout Name:  C:/WORK_ORCAD/OSCILLATOR/allegro/OSCILLATOR.brd*
G04 Film Name:    SoldermaskTop*
G04 File Format:  Gerber RS274X*
G04 File Origin:  Cadence Allegro 17.2-P019*
G04 Origin Date:  Thu Aug 01 11:34:10 2019*
G04 *
G04 Layer:  VIA CLASS/SOLDERMASK_TOP*
G04 Layer:  PIN/SOLDERMASK_TOP*
G04 Layer:  PACKAGE GEOMETRY/SOLDERMASK_TOP*
G04 Layer:  BOARD GEOMETRY/SOLDERMASK_TOP*
G04 *
G04 Offset:    (0.000 0.000)*
G04 Mirror:    No*
G04 Mode:      Positive*
G04 Rotation:  0*
G04 FullContactRelief:  No*
G04 UndefLineWidth:     0.000*
G04 ================== end FILE IDENTIFICATION RECORD ====================*
%FSLAX25Y25*MOIN*%
%IR0*IPPOS*OFA0.00000B0.00000*MIA0B0*SFA1.00000B1.00000*%
%ADD12C,.08*%
%ADD11C,.075*%
%ADD10C,.145*%
%ADD13R,.075X.075*%
%LPD*%
G75*
G54D10*
X19685Y19685D03*
Y255906D03*
X374016Y19685D03*
Y255906D03*
G54D11*
X19685Y137480D03*
Y147480D03*
Y157480D03*
X80000Y140000D03*
Y150000D03*
Y160000D03*
X125000Y90000D03*
Y80000D03*
X110000Y140000D03*
Y150000D03*
Y160000D03*
Y170000D03*
X135000Y215000D03*
X145000Y205000D03*
Y225000D03*
X200000Y140000D03*
Y150000D03*
Y160000D03*
X230000Y140000D03*
Y150000D03*
Y160000D03*
Y170000D03*
X257500Y205000D03*
Y215000D03*
Y225000D03*
X282500Y90000D03*
Y80000D03*
X270000Y142500D03*
Y152500D03*
Y162500D03*
X287500Y205000D03*
Y215000D03*
Y225000D03*
Y235000D03*
X300000Y142500D03*
Y152500D03*
Y162500D03*
Y172500D03*
X374016Y147795D03*
Y137795D03*
G54D12*
X60000Y205000D03*
Y225000D03*
X80000Y202500D03*
X95000D03*
X80000Y242500D03*
X95000D03*
X115000Y202500D03*
Y242500D03*
X157500Y75000D03*
Y95000D03*
X175000Y75000D03*
Y95000D03*
X185000Y202500D03*
Y242500D03*
X205000Y202500D03*
X227500Y227500D03*
Y207500D03*
X205000Y242500D03*
X240000Y77500D03*
X257500D03*
X240000Y97500D03*
X257500D03*
X310000Y195000D03*
Y235000D03*
X325000Y142500D03*
Y195000D03*
Y182500D03*
X342500Y195000D03*
X325000Y235000D03*
X342500D03*
X360000Y195000D03*
Y235000D03*
G54D13*
X80000Y170000D03*
X125000Y100000D03*
X200000Y170000D03*
X257500Y235000D03*
X282500Y100000D03*
X270000Y172500D03*
M02*
